<svg xmlns="http://www.w3.org/2000/svg" width="65.812" height="58"><g style="fill:#a29d86;fill-opacity:1;stroke:#ccc;stroke-width:.07269443;stroke-linejoin:bevel;stroke-miterlimit:4;stroke-dasharray:none"><path d="m-186.329 59.726 3.185 1.16v3.742l-3.185-1.159z" style="fill:#e9e9ff;fill-opacity:1;stroke:#ccc;stroke-width:.07269443" transform="translate(564.377 -156.012) scale(2.92733)"/><path d="M-189.56 60.903v3.743l3.231-1.177v-3.743z" style="fill:#353564;fill-opacity:1;stroke:#ccc;stroke-width:.07269443" transform="translate(564.377 -156.012) scale(2.92733)"/><path d="m-189.56 64.646 3.184 1.159 3.232-1.177-3.185-1.159z" style="fill:#afafde;fill-opacity:1;stroke:#ccc;stroke-width:.07269443" transform="translate(564.377 -156.012) scale(2.92733)"/><path d="m-189.56 60.903 3.184 1.159 3.232-1.177-3.185-1.159z" style="fill:#f7f7f4;fill-opacity:1;stroke:#ccc;stroke-width:.07269443" transform="translate(564.377 -156.012) scale(2.92733)"/><path d="M-186.376 62.062v3.743l3.232-1.177v-3.743z" style="fill:#fff;fill-opacity:1;stroke:#ccc;stroke-width:.07269443" transform="translate(564.377 -156.012) scale(2.92733)"/><path d="m-189.56 60.903 3.184 1.159v3.743l-3.185-1.16z" style="fill:#efeeea;fill-opacity:1;stroke:#ccc;stroke-width:.07269443" transform="translate(564.377 -156.012) scale(2.92733)"/></g><g style="fill:#a29d86;fill-opacity:1;stroke:#ccc;stroke-width:.07269443;stroke-linejoin:bevel"><path d="m-186.329 59.726 3.185 1.16v3.742l-3.185-1.159z" style="fill:#e9e9ff;fill-opacity:1" transform="translate(573.74 -163.673) scale(2.92733)"/><path d="M-189.56 60.903v3.743l3.231-1.177v-3.743z" style="fill:#353564;fill-opacity:1" transform="translate(573.74 -163.673) scale(2.92733)"/><path d="m-189.56 64.646 3.184 1.159 3.232-1.177-3.185-1.159z" style="fill:#afafde;fill-opacity:1" transform="translate(573.74 -163.673) scale(2.92733)"/><path d="m-189.56 60.903 3.184 1.159 3.232-1.177-3.185-1.159z" style="fill:#f7f7f4;fill-opacity:1" transform="translate(573.74 -163.673) scale(2.92733)"/><path d="M-186.376 62.062v3.743l3.232-1.177v-3.743z" style="fill:#fff;fill-opacity:1" transform="translate(573.74 -163.673) scale(2.92733)"/><path d="m-189.56 60.903 3.184 1.159v3.743l-3.185-1.16z" style="fill:#efeeea;fill-opacity:1" transform="translate(573.74 -163.673) scale(2.92733)"/></g><g style="fill:#a29d86;fill-opacity:1;stroke:#ccc;stroke-width:.07269443;stroke-linejoin:bevel"><path d="m-186.329 59.726 3.185 1.16v3.742l-3.185-1.159z" style="fill:#e9e9ff" transform="translate(555.014 -141.542) scale(2.92733)"/><path d="M-189.56 60.903v3.743l3.231-1.177v-3.743z" style="fill:#353564" transform="translate(555.014 -141.542) scale(2.92733)"/><path d="m-189.56 64.646 3.184 1.159 3.232-1.177-3.185-1.159z" style="fill:#afafde" transform="translate(555.014 -141.542) scale(2.92733)"/><path d="m-189.56 60.903 3.184 1.159 3.232-1.177-3.185-1.159z" style="fill:#f7f7f4" transform="translate(555.014 -141.542) scale(2.92733)"/><path d="M-186.376 62.062v3.743l3.232-1.177v-3.743z" style="fill:#fff" transform="translate(555.014 -141.542) scale(2.92733)"/><path d="m-189.56 60.903 3.184 1.159v3.743l-3.185-1.16z" style="fill:#efeeea" transform="translate(555.014 -141.542) scale(2.92733)"/></g><g style="stroke:#ccc;stroke-width:.07269443;stroke-linejoin:bevel"><path d="m-186.329 59.726 3.185 1.16v3.742l-3.185-1.159z" style="fill:#e9e9ff" transform="translate(564.377 -138.137) scale(2.92733)"/><path d="M-189.56 60.903v3.743l3.231-1.177v-3.743z" style="fill:#353564" transform="translate(564.377 -138.137) scale(2.92733)"/><path d="m-189.56 64.646 3.184 1.159 3.232-1.177-3.185-1.159z" style="fill:#afafde" transform="translate(564.377 -138.137) scale(2.92733)"/><path d="m-189.56 60.903 3.184 1.159 3.232-1.177-3.185-1.159z" style="fill:#f7f7f4" transform="translate(564.377 -138.137) scale(2.92733)"/><path d="M-186.376 62.062v3.743l3.232-1.177v-3.743z" style="fill:#fff" transform="translate(564.377 -138.137) scale(2.92733)"/><path d="m-189.56 60.903 3.184 1.159v3.743l-3.185-1.16z" style="fill:#efeeea" transform="translate(564.377 -138.137) scale(2.92733)"/></g><g style="stroke:#ccc;stroke-width:.07269443;stroke-linejoin:bevel"><path d="m-186.329 59.726 3.185 1.16v3.742l-3.185-1.159z" style="fill:#e9e9ff" transform="translate(564.377 -149.203) scale(2.92733)"/><path d="M-189.56 60.903v3.743l3.231-1.177v-3.743z" style="fill:#353564" transform="translate(564.377 -149.203) scale(2.92733)"/><path d="m-189.56 64.646 3.184 1.159 3.232-1.177-3.185-1.159z" style="fill:#afafde" transform="translate(564.377 -149.203) scale(2.92733)"/><path d="m-189.56 60.903 3.184 1.159 3.232-1.177-3.185-1.159z" style="fill:#f7f7f4" transform="translate(564.377 -149.203) scale(2.92733)"/><path d="M-186.376 62.062v3.743l3.232-1.177v-3.743z" style="fill:#fff" transform="translate(564.377 -149.203) scale(2.92733)"/><path d="m-189.56 60.903 3.184 1.159v3.743l-3.185-1.16z" style="fill:#efeeea" transform="translate(564.377 -149.203) scale(2.92733)"/></g><g style="stroke:#ccc;stroke-width:.07269443;stroke-linejoin:bevel"><path d="m-186.329 59.726 3.185 1.16v3.742l-3.185-1.159z" style="fill:#e9e9ff" transform="translate(601.83 -144.947) scale(2.92733)"/><path d="M-189.56 60.903v3.743l3.231-1.177v-3.743z" style="fill:#353564" transform="translate(601.83 -144.947) scale(2.92733)"/><path d="m-189.56 64.646 3.184 1.159 3.232-1.177-3.185-1.159z" style="fill:#afafde" transform="translate(601.83 -144.947) scale(2.92733)"/><path d="m-189.56 60.903 3.184 1.159 3.232-1.177-3.185-1.159z" style="fill:#f7f7f4" transform="translate(601.83 -144.947) scale(2.92733)"/><path d="M-186.376 62.062v3.743l3.232-1.177v-3.743z" style="fill:#fff" transform="translate(601.83 -144.947) scale(2.92733)"/><path d="m-189.56 60.903 3.184 1.159v3.743l-3.185-1.16z" style="fill:#efeeea" transform="translate(601.83 -144.947) scale(2.92733)"/></g><g style="stroke:#ccc;stroke-width:.07269443;stroke-linejoin:bevel"><path d="m-186.329 59.726 3.185 1.16v3.742l-3.185-1.159z" style="fill:#e9e9ff" transform="translate(583.104 -138.137) scale(2.92733)"/><path d="M-189.56 60.903v3.743l3.231-1.177v-3.743z" style="fill:#353564" transform="translate(583.104 -138.137) scale(2.92733)"/><path d="m-189.56 64.646 3.184 1.159 3.232-1.177-3.185-1.159z" style="fill:#afafde" transform="translate(583.104 -138.137) scale(2.92733)"/><path d="m-189.56 60.903 3.184 1.159 3.232-1.177-3.185-1.159z" style="fill:#f7f7f4" transform="translate(583.104 -138.137) scale(2.92733)"/><path d="M-186.376 62.062v3.743l3.232-1.177v-3.743z" style="fill:#ffd242" transform="translate(583.104 -138.137) scale(2.92733)"/><path d="m-189.56 60.903 3.184 1.159v3.743l-3.185-1.16z" style="fill:#efeeea" transform="translate(583.104 -138.137) scale(2.92733)"/></g><g style="stroke:#ccc;stroke-width:.07269443;stroke-linejoin:bevel"><path d="m-186.329 59.726 3.185 1.16v3.742l-3.185-1.159z" style="fill:#e9e9ff" transform="translate(573.74 -134.732) scale(2.92733)"/><path d="M-189.56 60.903v3.743l3.231-1.177v-3.743z" style="fill:#353564" transform="translate(573.74 -134.732) scale(2.92733)"/><path d="m-189.56 64.646 3.184 1.159 3.232-1.177-3.185-1.159z" style="fill:#afafde" transform="translate(573.74 -134.732) scale(2.92733)"/><path d="m-189.56 60.903 3.184 1.159 3.232-1.177-3.185-1.159z" style="fill:#f7f7f4" transform="translate(573.74 -134.732) scale(2.92733)"/><path d="M-186.376 62.062v3.743l3.232-1.177v-3.743z" style="fill:#fff" transform="translate(573.74 -134.732) scale(2.92733)"/><path d="m-189.56 60.903 3.184 1.159v3.743l-3.185-1.16z" style="fill:#efeeea" transform="translate(573.74 -134.732) scale(2.92733)"/></g><g style="stroke:#ccc;stroke-width:.07269443;stroke-linejoin:bevel"><path d="m-186.329 59.726 3.185 1.16v3.742l-3.185-1.159z" style="fill:#e9e9ff" transform="translate(601.83 -156.012) scale(2.92733)"/><path d="M-189.56 60.903v3.743l3.231-1.177v-3.743z" style="fill:#353564" transform="translate(601.83 -156.012) scale(2.92733)"/><path d="m-189.56 64.646 3.184 1.159 3.232-1.177-3.185-1.159z" style="fill:#afafde" transform="translate(601.83 -156.012) scale(2.92733)"/><path d="m-189.56 60.903 3.184 1.159 3.232-1.177-3.185-1.159z" style="fill:#f7f7f4" transform="translate(601.83 -156.012) scale(2.92733)"/><path d="M-186.376 62.062v3.743l3.232-1.177v-3.743z" style="fill:#ffd242" transform="translate(601.83 -156.012) scale(2.92733)"/><path d="m-189.56 60.903 3.184 1.159v3.743l-3.185-1.16z" style="fill:#efeeea" transform="translate(601.83 -156.012) scale(2.92733)"/></g><g style="stroke:#ccc;stroke-width:.07269443;stroke-linejoin:bevel"><path d="m-186.329 59.726 3.185 1.16v3.742l-3.185-1.159z" style="fill:#e9e9ff" transform="translate(601.83 -167.078) scale(2.92733)"/><path d="M-189.56 60.903v3.743l3.231-1.177v-3.743z" style="fill:#353564" transform="translate(601.83 -167.078) scale(2.92733)"/><path d="m-189.56 64.646 3.184 1.159 3.232-1.177-3.185-1.159z" style="fill:#afafde" transform="translate(601.83 -167.078) scale(2.92733)"/><path d="m-189.56 60.903 3.184 1.159 3.232-1.177-3.185-1.159z" style="fill:#ffc91d" transform="translate(601.83 -167.078) scale(2.92733)"/><path d="M-186.376 62.062v3.743l3.232-1.177v-3.743z" style="fill:#ffd242" transform="translate(601.83 -167.078) scale(2.92733)"/><path d="m-189.56 60.903 3.184 1.159v3.743l-3.185-1.16z" style="fill:#efeeea" transform="translate(601.83 -167.078) scale(2.92733)"/></g><g style="stroke:#ccc;stroke-width:.07269443;stroke-linejoin:bevel"><path d="m-186.329 59.726 3.185 1.16v3.742l-3.185-1.159z" style="fill:#e9e9ff" transform="translate(592.467 -152.608) scale(2.92733)"/><path d="M-189.56 60.903v3.743l3.231-1.177v-3.743z" style="fill:#353564" transform="translate(592.467 -152.608) scale(2.92733)"/><path d="m-189.56 64.646 3.184 1.159 3.232-1.177-3.185-1.159z" style="fill:#afafde" transform="translate(592.467 -152.608) scale(2.92733)"/><path d="m-189.56 60.903 3.184 1.159 3.232-1.177-3.185-1.159z" style="fill:#f7f7f4" transform="translate(592.467 -152.608) scale(2.92733)"/><path d="M-186.376 62.062v3.743l3.232-1.177v-3.743z" style="fill:#ffd242" transform="translate(592.467 -152.608) scale(2.92733)"/><path d="m-189.56 60.903 3.184 1.159v3.743l-3.185-1.16z" style="fill:#efeeea" transform="translate(592.467 -152.608) scale(2.92733)"/></g><g style="stroke:#ccc;stroke-width:.07269443;stroke-linejoin:bevel"><path d="m-186.329 59.726 3.185 1.16v3.742l-3.185-1.159z" style="fill:#e9e9ff" transform="translate(592.467 -163.673) scale(2.92733)"/><path d="M-189.56 60.903v3.743l3.231-1.177v-3.743z" style="fill:#353564" transform="translate(592.467 -163.673) scale(2.92733)"/><path d="m-189.56 64.646 3.184 1.159 3.232-1.177-3.185-1.159z" style="fill:#afafde" transform="translate(592.467 -163.673) scale(2.92733)"/><path d="m-189.56 60.903 3.184 1.159 3.232-1.177-3.185-1.159z" style="fill:#f7f7f4" transform="translate(592.467 -163.673) scale(2.92733)"/><path d="M-186.376 62.062v3.743l3.232-1.177v-3.743z" style="fill:#3775a9" transform="translate(592.467 -163.673) scale(2.92733)"/><path d="m-189.56 60.903 3.184 1.159v3.743l-3.185-1.16z" style="fill:#efeeea" transform="translate(592.467 -163.673) scale(2.92733)"/></g><g style="stroke:#ccc;stroke-width:.07269443;stroke-linejoin:bevel"><path d="m-186.329 59.726 3.185 1.16v3.742l-3.185-1.159z" style="fill:#e9e9ff" transform="translate(592.467 -174.739) scale(2.92733)"/><path d="M-189.56 60.903v3.743l3.231-1.177v-3.743z" style="fill:#353564" transform="translate(592.467 -174.739) scale(2.92733)"/><path d="m-189.56 64.646 3.184 1.159 3.232-1.177-3.185-1.159z" style="fill:#afafde" transform="translate(592.467 -174.739) scale(2.92733)"/><path d="m-189.56 60.903 3.184 1.159 3.232-1.177-3.185-1.159z" style="fill:#2f6491" transform="translate(592.467 -174.739) scale(2.92733)"/><path d="M-186.376 62.062v3.743l3.232-1.177v-3.743z" style="fill:#3775a9" transform="translate(592.467 -174.739) scale(2.92733)"/><path d="m-189.56 60.903 3.184 1.159v3.743l-3.185-1.16z" style="fill:#efeeea" transform="translate(592.467 -174.739) scale(2.92733)"/></g><g style="stroke:#ccc;stroke-width:.07269443;stroke-linejoin:bevel"><path d="m-186.329 59.726 3.185 1.16v3.742l-3.185-1.159z" style="fill:#e9e9ff" transform="translate(583.104 -149.203) scale(2.92733)"/><path d="M-189.56 60.903v3.743l3.231-1.177v-3.743z" style="fill:#353564" transform="translate(583.104 -149.203) scale(2.92733)"/><path d="m-189.56 64.646 3.184 1.159 3.232-1.177-3.185-1.159z" style="fill:#afafde" transform="translate(583.104 -149.203) scale(2.92733)"/><path d="m-189.56 60.903 3.184 1.159 3.232-1.177-3.185-1.159z" style="fill:#f7f7f4" transform="translate(583.104 -149.203) scale(2.92733)"/><path d="M-186.376 62.062v3.743l3.232-1.177v-3.743z" style="fill:#ffd242" transform="translate(583.104 -149.203) scale(2.92733)"/><path d="m-189.56 60.903 3.184 1.159v3.743l-3.185-1.16z" style="fill:#efeeea" transform="translate(583.104 -149.203) scale(2.92733)"/></g><g style="stroke:#ccc;stroke-width:.07269443;stroke-linejoin:bevel"><path d="m-186.329 59.726 3.185 1.16v3.742l-3.185-1.159z" style="fill:#e9e9ff" transform="translate(583.104 -160.268) scale(2.92733)"/><path d="M-189.56 60.903v3.743l3.231-1.177v-3.743z" style="fill:#353564" transform="translate(583.104 -160.268) scale(2.92733)"/><path d="m-189.56 64.646 3.184 1.159 3.232-1.177-3.185-1.159z" style="fill:#afafde" transform="translate(583.104 -160.268) scale(2.92733)"/><path d="m-189.56 60.903 3.184 1.159 3.232-1.177-3.185-1.159z" style="fill:#f7f7f4" transform="translate(583.104 -160.268) scale(2.92733)"/><path d="M-186.376 62.062v3.743l3.232-1.177v-3.743z" style="fill:#3775a9" transform="translate(583.104 -160.268) scale(2.92733)"/><path d="m-189.56 60.903 3.184 1.159v3.743l-3.185-1.16z" style="fill:#efeeea" transform="translate(583.104 -160.268) scale(2.92733)"/></g><g style="stroke:#ccc;stroke-width:.07269443;stroke-linejoin:bevel"><path d="m-186.329 59.726 3.185 1.16v3.742l-3.185-1.159z" style="fill:#e9e9ff" transform="translate(573.74 -145.798) scale(2.92733)"/><path d="M-189.56 60.903v3.743l3.231-1.177v-3.743z" style="fill:#353564" transform="translate(573.74 -145.798) scale(2.92733)"/><path d="m-189.56 64.646 3.184 1.159 3.232-1.177-3.185-1.159z" style="fill:#afafde" transform="translate(573.74 -145.798) scale(2.92733)"/><path d="m-189.56 60.903 3.184 1.159 3.232-1.177-3.185-1.159z" style="fill:#f7f7f4" transform="translate(573.74 -145.798) scale(2.92733)"/><path d="M-186.376 62.062v3.743l3.232-1.177v-3.743z" style="fill:#3775a9" transform="translate(573.74 -145.798) scale(2.92733)"/><path d="m-189.56 60.903 3.184 1.159v3.743l-3.185-1.16z" style="fill:#2f6491" transform="translate(573.74 -145.798) scale(2.92733)"/></g><g style="stroke:#ccc;stroke-width:.07269443;stroke-linejoin:bevel"><path d="m-186.329 59.726 3.185 1.16v3.742l-3.185-1.159z" style="fill:#e9e9ff" transform="translate(573.74 -156.864) scale(2.92733)"/><path d="M-189.56 60.903v3.743l3.231-1.177v-3.743z" style="fill:#353564" transform="translate(573.74 -156.864) scale(2.92733)"/><path d="m-189.56 64.646 3.184 1.159 3.232-1.177-3.185-1.159z" style="fill:#afafde" transform="translate(573.74 -156.864) scale(2.92733)"/><path d="m-189.56 60.903 3.184 1.159 3.232-1.177-3.185-1.159z" style="fill:#2f6491" transform="translate(573.74 -156.864) scale(2.92733)"/><path d="M-186.376 62.062v3.743l3.232-1.177v-3.743z" style="fill:#3775a9" transform="translate(573.74 -156.864) scale(2.92733)"/><path d="m-189.56 60.903 3.184 1.159v3.743l-3.185-1.16z" style="fill:#2f6491" transform="translate(573.74 -156.864) scale(2.92733)"/></g></svg>
